<?xml version="1.0" encoding="utf-8"?>
<!-- Generator: Adobe Illustrator 18.1.0, SVG Export Plug-In . SVG Version: 6.00 Build 0)  -->
<svg version="1.1" id="Layer_1" xmlns="http://www.w3.org/2000/svg" xmlns:xlink="http://www.w3.org/1999/xlink" x="0px" y="0px"
	 viewBox="0 0 134.5 118" enable-background="new 0 0 134.5 118" xml:space="preserve">
<g>
	<path fill="none" stroke="#277FE9" stroke-width="8" stroke-miterlimit="10" d="M130.1,92.7c0,11.7-9.5,21.2-21.2,21.2H25.6
		c-11.7,0-21.2-9.5-21.2-21.2V51.3c0-11.7,9.5-21.2,21.2-21.2h83.3c11.7,0,21.2,9.5,21.2,21.2V92.7z"/>
	<path fill="none" stroke="#277FE9" stroke-width="8" stroke-miterlimit="10" d="M39.6,72c0-15.3,12.4-27.6,27.6-27.6
		c15.3,0,27.6,12.4,27.6,27.6c0,15.3-12.4,27.7-27.6,27.7C52,99.6,39.6,87.2,39.6,72z"/>
	<rect x="39.6" y="4.4" fill="none" stroke="#277FE9" stroke-width="8" stroke-miterlimit="10" width="55.3" height="25.7"/>
</g>
</svg>
